<?xml version="1.0" encoding="utf-8"?>
<!-- Generator: Adobe Illustrator 26.3.1, SVG Export Plug-In . SVG Version: 6.00 Build 0)  -->
<svg version="1.1" id="Layer_1" xmlns="http://www.w3.org/2000/svg" xmlns:xlink="http://www.w3.org/1999/xlink" x="0px" y="0px"
	 viewBox="0 0 150 40" style="enable-background:new 0 0 150 40;" xml:space="preserve">
<style type="text/css">
	.st0{fill:#EFEFEF;}
</style>
<rect y="0.4" class="st0" width="150" height="40"/>
<g>
	<path d="M21.6,16.2v8.1h-1.1v-8.1H21.6z"/>
	<path d="M30.2,20.7c-0.1-1.1-0.1-2.5-0.1-3.5h0c-0.3,0.9-0.6,2-1,3.1l-1.4,3.9h-0.8l-1.3-3.8c-0.4-1.1-0.7-2.2-0.9-3.1h0
		c0,1-0.1,2.4-0.2,3.6l-0.2,3.5h-1l0.6-8.1h1.3l1.4,3.9c0.3,1,0.6,1.9,0.8,2.7h0c0.2-0.8,0.5-1.7,0.9-2.7l1.4-3.9h1.3l0.5,8.1h-1
		L30.2,20.7z"/>
	<path d="M34.3,21.7l-0.8,2.5h-1.1l2.7-8.1h1.3l2.8,8.1H38l-0.9-2.5H34.3z M36.9,20.9l-0.8-2.3c-0.2-0.5-0.3-1-0.4-1.5h0
		c-0.1,0.5-0.2,1-0.4,1.5l-0.8,2.3H36.9z"/>
	<path d="M46.3,23.9c-0.5,0.2-1.4,0.4-2.5,0.4c-1.2,0-2.2-0.3-3-1.1c-0.7-0.7-1.1-1.8-1.1-3c0-2.4,1.7-4.2,4.4-4.2
		c0.9,0,1.7,0.2,2,0.4l-0.3,0.9c-0.4-0.2-1-0.3-1.8-0.3c-2,0-3.2,1.2-3.2,3.2c0,2.1,1.2,3.3,3.1,3.3c0.7,0,1.2-0.1,1.4-0.2v-2.4
		h-1.6V20h2.7V23.9z"/>
	<path d="M52,20.5h-3.1v2.9h3.5v0.9h-4.6v-8.1h4.4v0.9h-3.3v2.6H52V20.5z"/>
	<path d="M56.3,16.3c0.5-0.1,1.2-0.2,2-0.2c1,0,1.8,0.2,2.3,0.7c0.4,0.4,0.7,1,0.7,1.7c0,0.7-0.2,1.3-0.6,1.7
		c-0.6,0.6-1.5,0.9-2.5,0.9c-0.3,0-0.6,0-0.8-0.1v3.3h-1V16.3z M57.4,20.2c0.2,0.1,0.5,0.1,0.9,0.1c1.3,0,2-0.6,2-1.7
		c0-1.1-0.8-1.6-1.9-1.6c-0.5,0-0.8,0-1,0.1V20.2z"/>
	<path d="M62.7,16.2h1.1v7.2h3.5v0.9h-4.5V16.2z"/>
	<path d="M69.7,21.7l-0.8,2.5h-1.1l2.7-8.1h1.3l2.8,8.1h-1.1l-0.9-2.5H69.7z M72.3,20.9l-0.8-2.3c-0.2-0.5-0.3-1-0.4-1.5h0
		c-0.1,0.5-0.2,1-0.4,1.5l-0.8,2.3H72.3z"/>
	<path d="M81.2,24c-0.4,0.2-1.2,0.4-2.1,0.4c-2.3,0-4-1.4-4-4.1c0-2.5,1.7-4.2,4.2-4.2c1,0,1.6,0.2,1.9,0.3l-0.3,0.9
		c-0.4-0.2-0.9-0.3-1.6-0.3c-1.9,0-3.2,1.2-3.2,3.3c0,2,1.1,3.2,3.1,3.2c0.6,0,1.3-0.1,1.7-0.3L81.2,24z"/>
	<path d="M86.7,20.5h-3.1v2.9H87v0.9h-4.6v-8.1h4.4v0.9h-3.3v2.6h3.1V20.5z"/>
	<path d="M89.4,16.2v3.4h3.9v-3.4h1.1v8.1h-1.1v-3.8h-3.9v3.8h-1.1v-8.1H89.4z"/>
	<path d="M99.4,24.4c-2.1,0-3.6-1.7-3.6-4.1c0-2.6,1.6-4.2,3.7-4.2c2.2,0,3.6,1.7,3.6,4.1C103.1,22.9,101.4,24.4,99.4,24.4
		L99.4,24.4z M99.4,23.6c1.7,0,2.6-1.5,2.6-3.4c0-1.6-0.8-3.3-2.6-3.3s-2.6,1.6-2.6,3.4C96.8,22,97.8,23.6,99.4,23.6L99.4,23.6z"/>
	<path d="M104.5,16.2h1.1v7.2h3.5v0.9h-4.5V16.2z"/>
	<path d="M110.1,16.3c0.6-0.1,1.4-0.2,2.2-0.2c1.5,0,2.6,0.3,3.3,1c0.7,0.7,1.2,1.6,1.2,2.9c0,1.3-0.4,2.4-1.2,3.1
		c-0.8,0.8-2,1.2-3.6,1.2c-0.8,0-1.4,0-1.9-0.1V16.3z M111.2,23.5c0.3,0,0.6,0,1.1,0c2.2,0,3.4-1.2,3.4-3.4c0-1.9-1.1-3.1-3.3-3.1
		c-0.5,0-0.9,0-1.2,0.1V23.5z"/>
	<path d="M122.3,20.5h-3.1v2.9h3.5v0.9h-4.6v-8.1h4.4v0.9h-3.3v2.6h3.1V20.5z"/>
	<path d="M124,16.3c0.5-0.1,1.3-0.2,2-0.2c1.1,0,1.8,0.2,2.4,0.7c0.4,0.3,0.6,0.9,0.6,1.5c0,1.1-0.7,1.8-1.5,2.1v0
		c0.6,0.2,1,0.8,1.2,1.6c0.3,1.1,0.5,1.9,0.6,2.2h-1.1c-0.1-0.2-0.3-0.9-0.5-1.9c-0.2-1.1-0.7-1.5-1.6-1.6h-1v3.5h-1V16.3z
		 M125.1,20h1.1c1.1,0,1.8-0.6,1.8-1.5c0-1-0.8-1.5-1.9-1.5c-0.5,0-0.9,0-1,0.1V20z"/>
</g>
</svg>
