<?xml version="1.0" encoding="utf-8"?>
<!-- Generator: Adobe Illustrator 15.0.0, SVG Export Plug-In . SVG Version: 6.00 Build 0)  -->
<!DOCTYPE svg PUBLIC "-//W3C//DTD SVG 1.1//EN" "http://www.w3.org/Graphics/SVG/1.1/DTD/svg11.dtd">
<svg version="1.1" id="Layer_1" xmlns="http://www.w3.org/2000/svg" xmlns:xlink="http://www.w3.org/1999/xlink" x="0px" y="0px"
	 width="180px" height="34px" viewBox="0 0 180 34" enable-background="new 0 0 180 34" xml:space="preserve">
<g>
	<path fill="#FFFFFF" d="M9.262,12.284l-0.908,1.096c1.057,0.098,2.001,0.23,2.832,0.394c0.831,0.165,1.601,0.347,2.307,0.548
		s1.327,0.412,1.862,0.631c1.876,0.805,2.814,1.925,2.814,3.362c0,0.878-0.392,1.737-1.176,2.58
		c-0.783,0.84-1.802,1.589-3.055,2.246c-1.252,0.656-2.541,1.173-3.865,1.544c-1.325,0.372-2.527,0.557-3.608,0.557
		c-1.805,0-3.212-0.345-4.222-1.031c-1.009-0.69-1.515-1.629-1.515-2.824c0-0.829,0.31-1.805,0.927-2.926
		c0.618-1.12,1.573-2.515,2.868-4.185c-0.975-0.05-1.663-0.199-2.066-0.448c-0.404-0.25-0.606-0.601-0.606-1.051
		c0-0.28,0.077-0.493,0.231-0.64c0.155-0.147,0.363-0.252,0.624-0.32c0.262-0.065,0.763-0.149,1.505-0.247
		c0.743-0.097,1.695-0.219,2.86-0.365c1.294-1.632,2.455-2.861,3.482-3.684c1.026-0.822,2.129-1.295,3.305-1.416
		c0.094-0.013,0.197-0.019,0.311-0.019c0.114,0,0.17,0.029,0.17,0.091c0,0.074-0.133,0.268-0.401,0.583
		c-0.267,0.318-0.701,0.823-1.3,1.518c-0.6,0.695-1.31,1.518-2.129,2.467c2.232-0.304,4.058-0.655,5.478-1.051
		c1.417-0.396,2.49-0.867,3.214-1.417c0.725-0.548,1.087-1.157,1.087-1.827c0-0.816-0.387-1.408-1.158-1.773
		s-1.954-0.549-3.545-0.549c-0.878,0-1.885,0.091-3.02,0.275c-1.134,0.183-2.161,0.39-3.081,0.621
		C8.565,5.258,7.745,5.506,7.027,5.767C6.308,6.03,5.95,6.221,5.95,6.343c0,0.036,0.036,0.073,0.106,0.11
		c0.582,0.22,0.873,0.402,0.873,0.549c0,0.195-0.891,0.568-2.672,1.123c-1.78,0.555-2.98,0.833-3.598,0.833
		C0.219,8.958,0,8.731,0,8.28c0-0.536,0.478-1.501,1.434-2.897c0.956-1.396,1.827-2.287,2.61-2.679
		c0.272-0.133,0.909-0.347,1.906-0.64c0.997-0.292,2.093-0.573,3.286-0.842c1.194-0.267,2.409-0.493,3.643-0.675
		c1.235-0.184,2.327-0.275,3.278-0.275c2.245,0,3.93,0.412,5.059,1.233c1.129,0.822,1.693,1.856,1.693,3.099
		c0,0.84-0.259,1.651-0.775,2.43c-0.517,0.78-1.321,1.518-2.414,2.213c-1.092,0.694-2.515,1.304-4.266,1.828
		C13.701,11.602,11.638,12.004,9.262,12.284z M7.374,14.642c-0.617,0.755-1.166,1.423-1.647,2.001s-0.826,1.048-1.033,1.407
		c-0.208,0.361-0.312,0.723-0.312,1.089c0,0.583,0.293,1.106,0.882,1.562c0.588,0.458,1.434,0.686,2.538,0.686
		c1.021,0,2.111-0.186,3.269-0.558c1.158-0.371,2.132-0.855,2.922-1.452c0.79-0.598,1.185-1.201,1.185-1.81
		c0-0.525-0.292-0.958-0.874-1.298c-0.582-0.342-1.466-0.644-2.654-0.905C10.462,15.102,9.037,14.86,7.374,14.642z"/>
	<path fill="#FFFFFF" d="M22.498,19.541v0.455c0,0.72,0.172,1.279,0.517,1.683c0.343,0.402,0.795,0.604,1.354,0.604
		c0.582,0,1.184-0.14,1.808-0.418c0.624-0.28,1.243-0.654,1.861-1.117c0.617-0.462,1.372-1.084,2.262-1.865v1.116
		c-1.341,1.656-2.6,2.929-3.775,3.812c-1.177,0.885-2.37,1.323-3.581,1.323c-1.057,0-1.895-0.419-2.512-1.261
		c-0.617-0.839-0.926-1.991-0.926-3.453c0-1.28,0.292-2.44,0.873-3.483c0.583-1.043,1.533-2.142,2.85-3.299
		c0.902-0.792,1.799-1.388,2.691-1.792c0.89-0.402,1.685-0.603,2.386-0.603c0.558,0,1,0.13,1.328,0.393
		c0.326,0.263,0.49,0.655,0.49,1.18c0,0.768-0.279,1.533-0.837,2.293c-0.559,0.762-1.41,1.518-2.556,2.266
		C25.582,18.125,24.171,18.846,22.498,19.541z M22.676,18.352c1.068-0.426,1.982-0.955,2.743-1.589
		c0.76-0.635,1.321-1.24,1.682-1.819c0.363-0.578,0.544-1.003,0.544-1.27c0-0.28-0.125-0.422-0.374-0.422
		c-0.214,0-0.561,0.141-1.042,0.422c-0.481,0.28-0.968,0.646-1.46,1.096c-0.494,0.45-0.936,0.98-1.327,1.59
		C23.05,16.97,22.794,17.634,22.676,18.352z"/>
	<path fill="#FFFFFF" d="M38.44,18.92c-1.044,1.22-1.98,2.254-2.805,3.106c-0.827,0.854-1.496,1.488-2.013,1.91
		c-0.517,0.419-0.869,0.63-1.06,0.63c-0.309,0-0.656-0.255-1.042-0.77c-0.386-0.51-0.715-1.163-0.989-1.951
		c-0.273-0.793-0.409-1.597-0.409-2.415c0-1.183,0.558-2.374,1.674-3.573c1.117-1.199,2.387-2.197,3.813-2.988
		c1.424-0.792,2.493-1.189,3.206-1.189c0.58,0,1.152,0.378,1.71,1.134c0.914-1.963,1.784-3.705,2.608-5.228
		c0.827-1.522,1.519-2.655,2.077-3.4c0.559-0.743,0.956-1.114,1.193-1.114c0.262,0,0.501,0.13,0.722,0.393
		c0.218,0.261,0.329,0.558,0.329,0.887c0,0.634-0.451,1.721-1.354,3.263c-0.903,1.541-1.794,3.043-2.673,4.506
		c-0.878,1.463-1.633,2.903-2.262,4.322c-0.63,1.422-0.944,2.734-0.944,3.94c0,1.097,0.344,1.645,1.034,1.645
		c0.414,0,0.938-0.239,1.566-0.723c0.63-0.48,1.526-1.287,2.691-2.421v1.336c-2.565,3.398-4.543,5.099-5.932,5.099
		c-0.559,0-0.96-0.219-1.203-0.656c-0.243-0.438-0.366-1.09-0.366-1.957C38.012,21.531,38.156,20.271,38.44,18.92z M39.76,14.458
		c-1.058,0.365-2.3,0.954-3.724,1.764c-1.426,0.811-2.287,1.368-2.584,1.672c-0.261,0.244-0.493,0.703-0.694,1.372
		c-0.203,0.67-0.303,1.176-0.303,1.518c0,0.207,0.059,0.377,0.178,0.512c0.119,0.135,0.267,0.199,0.445,0.199
		c0.166,0,0.356-0.072,0.568-0.22c0.214-0.145,0.557-0.432,1.026-0.858c0.468-0.427,0.774-0.7,0.917-0.821
		c0.201-0.184,0.65-0.577,1.344-1.179c0.696-0.604,1.202-1.076,1.523-1.417c0.32-0.341,0.596-0.724,0.82-1.142
		C39.502,15.437,39.663,14.97,39.76,14.458z"/>
	<path fill="#FFFFFF" d="M51.729,24.496c-0.843,0-1.656-0.269-2.44-0.807c-0.785-0.536-1.413-1.279-1.888-2.229
		c-0.476-0.95-0.714-2.011-0.714-3.182c0-1.56,0.58-2.979,1.738-4.258c1.159-1.279,2.865-2.541,5.121-3.784
		c-0.119-0.768-0.178-1.31-0.178-1.626c0-1.232,0.253-2.389,0.757-3.474c0.504-1.084,1.16-2.007,1.968-2.768
		c0.807-0.762,1.663-1.348,2.565-1.755C59.561,0.205,60.422,0,61.241,0c0.949,0,1.716,0.235,2.298,0.704
		c0.582,0.47,0.873,1.075,0.873,1.818c0,0.986-0.247,1.872-0.74,2.65c-0.493,0.78-1.122,1.478-1.888,2.094
		c-0.767,0.616-1.707,1.279-2.823,1.993c-1.116,0.712-1.794,1.16-2.03,1.343c0.38,1.536,0.956,3.107,1.727,4.716
		c1.069-0.743,1.907-1.411,2.511-2.001c0.605-0.591,1.118-1.136,1.532-1.636c0.417-0.5,0.695-0.749,0.838-0.749
		c0.107,0,0.195,0.135,0.268,0.402c0.07,0.268,0.106,0.56,0.106,0.877c0,0.743-0.13,1.443-0.392,2.103
		c-0.261,0.656-0.633,1.315-1.113,1.973c-0.482,0.659-1.078,1.36-1.791,2.102l1.176,1.317c0.107-0.099,0.236-0.239,0.392-0.421
		c0.154-0.182,0.272-0.308,0.356-0.375c0.083-0.066,0.173-0.101,0.268-0.101c0.119,0,0.21,0.049,0.275,0.146
		c0.066,0.099,0.099,0.208,0.099,0.329c0,0.499-0.345,1.339-1.034,2.512c-0.688,1.176-1.259,1.766-1.71,1.766
		c-0.237,0-0.469-0.1-0.694-0.303c-0.226-0.201-0.498-0.524-0.819-0.969c-0.321-0.444-0.583-0.818-0.784-1.123
		c-1.366,1.071-2.581,1.895-3.643,2.466C53.436,24.208,52.513,24.496,51.729,24.496z M54.134,12.631
		c-0.88,0.621-1.661,1.292-2.343,2.01s-1.223,1.417-1.621,2.093c-0.397,0.676-0.596,1.239-0.596,1.691
		c0,0.902,0.397,1.353,1.194,1.353c0.581,0,1.371-0.198,2.368-0.594c0.999-0.396,1.996-0.972,2.993-1.729
		C55.606,16.214,54.941,14.604,54.134,12.631z M56.538,7.166v0.748c1.71-0.987,3.037-2.029,3.981-3.125
		c0.945-1.097,1.417-1.967,1.417-2.613c0-0.548-0.268-0.822-0.802-0.822c-0.487,0-1.104,0.295-1.851,0.886
		c-0.749,0.592-1.393,1.334-1.934,2.229C56.809,5.366,56.538,6.264,56.538,7.166z"/>
	<path fill="#FFFFFF" d="M73.14,12.284l-0.909,1.096c1.058,0.098,2.001,0.23,2.833,0.394c0.831,0.165,1.599,0.347,2.306,0.548
		s1.328,0.412,1.862,0.631c1.877,0.805,2.813,1.925,2.813,3.362c0,0.878-0.39,1.737-1.175,2.58c-0.783,0.84-1.802,1.589-3.054,2.246
		c-1.255,0.656-2.544,1.173-3.867,1.544c-1.324,0.372-2.527,0.557-3.606,0.557c-1.806,0-3.213-0.345-4.223-1.031
		c-1.009-0.69-1.514-1.629-1.514-2.824c0-0.829,0.309-1.805,0.925-2.926c0.619-1.12,1.575-2.515,2.869-4.185
		c-0.974-0.05-1.662-0.199-2.067-0.448c-0.403-0.25-0.605-0.601-0.605-1.051c0-0.28,0.078-0.493,0.231-0.64
		c0.155-0.147,0.364-0.252,0.624-0.32c0.263-0.065,0.764-0.149,1.506-0.247c0.743-0.097,1.696-0.219,2.86-0.365
		c1.295-1.632,2.455-2.861,3.481-3.684c1.027-0.822,2.13-1.295,3.305-1.416c0.095-0.013,0.2-0.019,0.312-0.019
		c0.113,0,0.17,0.029,0.17,0.091c0,0.074-0.134,0.268-0.399,0.583c-0.269,0.318-0.702,0.823-1.301,1.518
		c-0.602,0.695-1.311,1.518-2.128,2.467c2.233-0.304,4.057-0.655,5.477-1.051c1.419-0.396,2.49-0.867,3.215-1.417
		c0.724-0.548,1.087-1.157,1.087-1.827c0-0.816-0.387-1.408-1.159-1.773s-1.952-0.549-3.543-0.549c-0.879,0-1.886,0.091-3.021,0.275
		c-1.134,0.183-2.161,0.39-3.082,0.621c-0.921,0.232-1.74,0.48-2.458,0.741c-0.719,0.263-1.078,0.454-1.078,0.576
		c0,0.036,0.037,0.073,0.107,0.11C70.515,6.671,70.806,6.854,70.806,7c0,0.195-0.89,0.568-2.672,1.124
		c-1.78,0.555-2.98,0.833-3.597,0.833c-0.439,0-0.66-0.226-0.66-0.676c0-0.536,0.479-1.501,1.434-2.897
		c0.957-1.396,1.827-2.287,2.609-2.679c0.274-0.133,0.909-0.347,1.906-0.64c0.999-0.292,2.093-0.573,3.287-0.842
		c1.194-0.267,2.407-0.493,3.643-0.675c1.234-0.184,2.328-0.275,3.277-0.275c2.246,0,3.932,0.412,5.06,1.233
		c1.13,0.822,1.691,1.856,1.691,3.099c0,0.84-0.257,1.651-0.773,2.43c-0.518,0.78-1.322,1.518-2.415,2.213
		c-1.093,0.694-2.514,1.304-4.265,1.828C77.579,11.602,75.515,12.004,73.14,12.284z M71.251,14.642
		c-0.617,0.755-1.166,1.423-1.647,2.001s-0.825,1.048-1.034,1.407c-0.207,0.361-0.311,0.723-0.311,1.089
		c0,0.583,0.293,1.106,0.881,1.562c0.588,0.458,1.434,0.686,2.539,0.686c1.021,0,2.111-0.186,3.269-0.558
		c1.157-0.371,2.131-0.855,2.92-1.452c0.79-0.598,1.186-1.201,1.186-1.81c0-0.525-0.291-0.958-0.873-1.298
		c-0.583-0.342-1.467-0.644-2.654-0.905C74.339,15.102,72.914,14.86,71.251,14.642z"/>
	<path fill="#FFFFFF" d="M83.346,20.289v-1.186c0.642-0.78,1.128-1.446,1.462-1.993c-0.381-0.134-0.655-0.3-0.829-0.494
		c-0.173-0.195-0.258-0.487-0.258-0.876c0-0.439,0.178-0.993,0.536-1.664c0.354-0.671,0.793-1.297,1.315-1.883
		c0.524-0.584,0.998-0.962,1.427-1.133c0.166-0.085,0.325-0.128,0.48-0.128c0.237,0,0.355,0.115,0.355,0.346
		c0,0.208-0.184,0.628-0.552,1.262c2.447-0.39,3.991-0.586,4.632-0.586c0.248,0,0.422,0.026,0.514,0.074
		c0.203,0.11,0.371,0.365,0.5,0.768c0.133,0.402,0.197,0.804,0.197,1.207c0,0.257-0.109,0.534-0.328,0.832
		c-0.223,0.298-0.6,0.734-1.133,1.305c-0.629,0.697-1.159,1.452-1.586,2.268c-0.427,0.815-0.641,1.433-0.641,1.846
		c0,0.574,0.343,0.859,1.034,0.859c0.724,0,1.98-0.755,3.777-2.266v1.224c-0.986,1.062-1.801,1.895-2.441,2.505
		c-0.641,0.609-1.236,1.093-1.782,1.454c-0.548,0.358-1.033,0.537-1.462,0.537c-0.497,0-0.913-0.235-1.245-0.703
		c-0.333-0.469-0.499-1.149-0.499-2.039c0-0.523,0.131-1.119,0.393-1.79c0.26-0.67,0.644-1.398,1.146-2.184
		c0.507-0.788,1.074-1.57,1.702-2.349c-0.331,0.073-0.706,0.148-1.121,0.228c-0.416,0.079-0.855,0.161-1.319,0.247
		c-0.463,0.085-0.818,0.151-1.069,0.2C85.818,17.688,84.749,19.06,83.346,20.289z"/>
	<path fill="#FFFFFF" d="M97.029,19.541v0.455c0,0.72,0.172,1.279,0.516,1.683c0.344,0.402,0.793,0.604,1.354,0.604
		c0.582,0,1.185-0.14,1.808-0.418c0.625-0.28,1.244-0.654,1.862-1.117c0.617-0.462,1.369-1.084,2.263-1.865v1.116
		c-1.343,1.656-2.604,2.929-3.774,3.812c-1.179,0.885-2.371,1.323-3.58,1.323c-1.06,0-1.896-0.419-2.515-1.261
		c-0.616-0.839-0.926-1.991-0.926-3.453c0-1.28,0.291-2.44,0.873-3.483c0.579-1.043,1.53-2.142,2.852-3.299
		c0.9-0.792,1.798-1.388,2.688-1.792c0.893-0.402,1.688-0.603,2.387-0.603c0.559,0,1.002,0.13,1.328,0.393
		c0.326,0.263,0.49,0.655,0.49,1.18c0,0.768-0.281,1.533-0.84,2.293c-0.56,0.762-1.408,1.518-2.556,2.266
		C100.113,18.125,98.701,18.846,97.029,19.541z M97.205,18.352c1.07-0.426,1.984-0.955,2.744-1.589
		c0.758-0.635,1.32-1.24,1.684-1.819c0.361-0.578,0.543-1.003,0.543-1.27c0-0.28-0.125-0.422-0.375-0.422
		c-0.213,0-0.561,0.141-1.041,0.422c-0.482,0.28-0.969,0.646-1.459,1.096c-0.494,0.45-0.938,0.98-1.328,1.59
		C97.58,16.97,97.324,17.634,97.205,18.352z"/>
	<path fill="#FFFFFF" d="M106.912,15.61c1.807-1.68,3.559-2.931,5.254-3.746c1.699-0.817,3.01-1.225,3.939-1.225
		c0.25,0,0.479,0.106,0.692,0.32c0.216,0.214,0.384,0.459,0.509,0.74c0.127,0.281,0.186,0.488,0.186,0.622
		c0,0.22-0.082,0.38-0.248,0.484c-0.164,0.104-0.459,0.229-0.871,0.374c0.08,0.197,0.189,0.446,0.32,0.751
		c0.131,0.305,0.229,0.55,0.301,0.739c0.072,0.189,0.107,0.357,0.107,0.503c0,0.292-0.289,0.837-0.865,1.635
		c-0.574,0.798-0.979,1.387-1.211,1.766c-0.229,0.377-0.349,0.84-0.349,1.389c0,0.902,0.406,1.354,1.214,1.354
		c0.83,0,2.129-0.799,3.901-2.396v1.114c-3.008,3.428-5.153,5.137-6.449,5.137c-0.463,0-0.791-0.156-0.989-0.467
		c-0.195-0.309-0.295-0.769-0.295-1.379c0-0.963,0.34-2.356,1.018-4.187c-1.734,1.974-3.021,3.379-3.865,4.213
		c-0.844,0.836-1.539,1.253-2.084,1.253c-0.262,0-0.588-0.232-0.98-0.696c-0.391-0.461-0.737-1.062-1.041-1.801
		c-0.305-0.735-0.453-1.5-0.453-2.291c0-0.574,0.052-1.052,0.158-1.435c0.107-0.386,0.314-0.778,0.625-1.18
		C105.744,16.798,106.236,16.269,106.912,15.61z M115.445,13.6c-3.088,1.45-5.287,2.681-6.6,3.692s-1.97,2.053-1.97,3.125
		c0,0.391,0.063,0.709,0.194,0.961c0.13,0.25,0.312,0.372,0.535,0.372c0.131,0,0.363-0.084,0.695-0.255
		c1.246-0.754,2.387-1.738,3.42-2.952C112.756,17.331,113.996,15.684,115.445,13.6z"/>
	<path fill="#FFFFFF" d="M133.062,18.882v1.225c-1.33,1.596-2.445,2.807-3.349,3.628c-0.901,0.823-1.657,1.235-2.262,1.235
		c-0.582,0-1.109-0.176-1.578-0.53c-0.47-0.356-0.89-0.843-1.267-1.465c-0.373-0.621-0.813-1.487-1.325-2.594
		c-0.605,0.768-1.152,1.483-1.642,2.148c-0.483,0.664-0.822,1.103-1.014,1.324c-0.189,0.219-0.361,0.328-0.518,0.328
		c-0.318,0-0.551-0.209-0.693-0.631c-0.143-0.419-0.213-1.033-0.213-1.837c0-1.095,0.127-2.152,0.381-3.173
		c0.256-1.016,0.623-2.006,1.105-2.968c0.481-0.963,1.098-2.002,1.854-3.117c0.752-1.115,1.6-2.283,2.537-3.5
		c1.295-1.682,2.412-3.055,3.35-4.121c0.939-1.067,1.754-1.871,2.449-2.414c0.693-0.542,1.273-0.813,1.736-0.813
		c0.572,0,0.855,0.263,0.855,0.786c0,0.451-1.052,2.075-3.152,4.871c-2.104,2.798-5.166,6.615-9.193,11.453v1.572
		c2.695-2.961,4.867-5.162,6.512-6.599c1.646-1.438,2.92-2.158,3.82-2.158c0.367,0,0.654,0.222,0.855,0.667
		c0.203,0.445,0.303,0.959,0.303,1.544c0,1.194-0.498,2.3-1.496,3.317c-0.996,1.019-2.529,2.185-4.596,3.501
		c0.354,0.546,0.672,0.948,0.944,1.197c0.271,0.249,0.617,0.375,1.033,0.375c0.367,0,0.765-0.128,1.19-0.387
		c0.431-0.255,0.865-0.576,1.31-0.966C131.451,20.395,132.137,19.76,133.062,18.882z M126.027,19.816
		c0.451-0.305,1.014-0.779,1.684-1.417c0.67-0.641,1.242-1.305,1.717-1.993c0.477-0.688,0.713-1.264,0.713-1.728
		c0-0.195-0.082-0.292-0.248-0.292c-0.451,0-1.227,0.444-2.324,1.333c-1.1,0.89-2.17,2.03-3.215,3.418
		C124.803,19.139,125.361,19.364,126.027,19.816z"/>
	<path fill="#FFFFFF" d="M142.875,18.882v1.261c-0.709,0.73-1.25,1.261-1.619,1.592c-0.369,0.327-0.873,0.664-1.514,1.004
		c0,1.109-0.053,2.057-0.158,2.834c-0.107,0.781-0.346,1.602-0.715,2.459c-0.367,0.86-0.936,1.8-1.707,2.826
		c-0.762,1.008-1.512,1.788-2.246,2.33C134.18,33.729,133.602,34,133.189,34c-0.465,0-0.896-0.391-1.285-1.171
		c-0.391-0.779-0.586-1.747-0.586-2.903c0-1.109,0.184-2.279,0.551-3.51c0.369-1.231,0.938-2.823,1.709-4.771
		c-0.58-0.78-0.869-1.554-0.869-2.322c0-0.621,0.152-1.097,0.459-1.427c0.312-0.328,0.748-0.626,1.322-0.895
		c0.412-0.67,0.809-1.241,1.182-1.709c0.373-0.469,0.881-1.093,1.521-1.874c1.236-3.12,2.688-6.167,4.35-9.14
		c0.461-0.829,0.797-1.387,0.996-1.673c0.203-0.286,0.416-0.429,0.641-0.429c0.203,0,0.383,0.152,0.533,0.456
		c0.158,0.305,0.234,0.701,0.234,1.189c0,0.597-0.062,1.146-0.188,1.646c-0.125,0.499-0.303,1.002-0.532,1.507
		c-0.232,0.506-0.554,1.111-0.961,1.818c-0.414,0.707-0.664,1.146-0.759,1.317c-0.596,1.071-1.266,2.261-2.014,3.565
		s-1.341,2.333-1.772,3.089c-0.437,0.756-0.746,1.321-0.935,1.698c0.639,0.574,1.147,1.066,1.521,1.481
		c0.373,0.413,0.697,0.908,0.973,1.479c0.404-0.154,0.771-0.346,1.103-0.564c0.334-0.221,0.726-0.521,1.179-0.904
		C142.012,19.569,142.449,19.213,142.875,18.882z M137.553,23.78l-0.037-0.383c-0.332,0.036-0.6,0.048-0.801,0.029
		c-0.201-0.021-0.436-0.072-0.703-0.158c-0.268-0.084-0.477-0.161-0.625-0.235c-0.146-0.072-0.312-0.146-0.488-0.219
		c-0.901,2.267-1.354,4.148-1.354,5.647c0,0.745,0.11,1.378,0.33,1.9c0.219,0.527,0.478,0.788,0.772,0.788
		c0.312,0,0.701-0.281,1.168-0.84c0.47-0.562,0.877-1.39,1.222-2.486C137.381,26.725,137.553,25.378,137.553,23.78z"/>
	<path fill="#FFFFFF" d="M144.443,15.61c1.807-1.68,3.561-2.931,5.256-3.746c1.699-0.817,3.008-1.225,3.936-1.225
		c0.252,0,0.482,0.106,0.697,0.32c0.213,0.214,0.383,0.459,0.504,0.74c0.129,0.281,0.188,0.488,0.188,0.622
		c0,0.22-0.082,0.38-0.246,0.484c-0.166,0.104-0.459,0.229-0.87,0.374c0.079,0.197,0.188,0.446,0.319,0.751
		c0.129,0.305,0.229,0.55,0.301,0.739c0.07,0.189,0.107,0.357,0.107,0.503c0,0.292-0.289,0.837-0.865,1.635
		c-0.574,0.798-0.979,1.387-1.211,1.766c-0.229,0.377-0.348,0.84-0.348,1.389c0,0.902,0.402,1.354,1.211,1.354
		c0.832,0,2.131-0.799,3.902-2.396v1.114c-3.006,3.428-5.152,5.137-6.449,5.137c-0.465,0-0.791-0.156-0.988-0.467
		c-0.195-0.309-0.295-0.769-0.295-1.379c0-0.963,0.338-2.356,1.018-4.187c-1.733,1.974-3.022,3.379-3.864,4.213
		c-0.845,0.836-1.541,1.253-2.086,1.253c-0.263,0-0.591-0.232-0.979-0.696c-0.393-0.461-0.738-1.062-1.043-1.801
		c-0.303-0.735-0.453-1.5-0.453-2.291c0-0.574,0.053-1.052,0.158-1.435c0.107-0.386,0.314-0.778,0.625-1.18
		C143.277,16.798,143.77,16.269,144.443,15.61z M152.979,13.6c-3.09,1.45-5.289,2.681-6.6,3.692
		c-1.314,1.012-1.969,2.053-1.969,3.125c0,0.391,0.064,0.709,0.193,0.961c0.131,0.25,0.309,0.372,0.535,0.372
		c0.131,0,0.362-0.084,0.694-0.255c1.248-0.754,2.388-1.738,3.422-2.952C150.289,17.331,151.527,15.684,152.979,13.6z"/>
	<path fill="#FFFFFF" d="M157.094,19.394v-0.439c3.062-3.313,5.172-5.634,6.322-6.963c0.262-1.498,0.891-2.248,1.889-2.248
		c0.248,0,0.519,0.073,0.801,0.218l0.107,0.348c-0.049,0.146-0.068,0.354-0.068,0.622c0,0.231,0.082,0.661,0.256,1.289
		c0.173,0.627,0.306,1.155,0.4,1.581c0.096,0.427,0.143,0.908,0.143,1.443c0,0.805-0.18,1.578-0.534,2.313
		c-0.354,0.738-0.871,1.445-1.548,2.12c-0.68,0.677-1.555,1.368-2.618,2.073c0.426,0.074,0.766,0.112,1.016,0.112
		c0.486,0,1.013-0.124,1.574-0.377c0.563-0.248,1.142-0.582,1.729-1.004c0.588-0.421,1.274-0.964,2.057-1.636v1.225
		c-1.52,1.523-2.881,2.677-4.078,3.464c-1.201,0.786-2.234,1.178-3.1,1.178c-1.115,0-2.148-0.486-3.103-1.463
		c-0.557-0.582-0.903-1.146-1.039-1.682C157.16,21.033,157.094,20.308,157.094,19.394z M163.736,16.597l-0.32-2.668
		c-0.738,0.853-2.311,2.491-4.721,4.917c0.711,0.158,1.201,0.371,1.461,0.641c0.262,0.268,0.629,0.784,1.104,1.554
		c0.809-0.342,1.43-0.808,1.861-1.398c0.436-0.591,0.652-1.399,0.652-2.421c0-0.124-0.004-0.233-0.013-0.33
		C163.758,16.793,163.748,16.696,163.736,16.597z"/>
	<path fill="#FFFFFF" d="M174.799,9.396h0.766c0.631-1.158,1.199-1.978,1.711-2.459c0.511-0.481,1.093-0.722,1.746-0.722
		c0.652,0,0.979,0.153,0.979,0.458c0,0.146-0.254,0.543-0.765,1.188c-0.512,0.645-0.897,1.188-1.159,1.626
		c0.403,0.048,0.764,0.091,1.08,0.128c0.312,0.035,0.559,0.067,0.737,0.09c-0.676,1.291-1.526,2.613-2.549,3.967
		c-0.332-0.025-0.611-0.046-0.838-0.063c-0.225-0.018-0.453-0.037-0.684-0.055c-0.23-0.019-0.516-0.041-0.846-0.064
		c-0.642,1.061-1.181,2.009-1.611,2.842c-0.436,0.835-0.768,1.601-1,2.295c-0.23,0.694-0.348,1.353-0.348,1.974
		c0,0.84,0.328,1.263,0.979,1.263c0.451,0,1.043-0.248,1.772-0.742c0.729-0.492,1.705-1.254,2.931-2.276v1.225
		c-3.207,3.569-5.578,5.355-7.104,5.355c-0.535,0-0.97-0.215-1.291-0.64c-0.328-0.426-0.492-0.975-0.492-1.646
		c0-0.448,0.092-0.987,0.276-1.609c0.183-0.62,0.511-1.559,0.986-2.813c-0.168,0.146-0.322,0.29-0.474,0.43
		c-0.147,0.141-0.283,0.268-0.406,0.384c-0.129,0.114-0.26,0.238-0.401,0.365c-0.146,0.128-0.287,0.258-0.428,0.393v-1.261
		c1.243-1.071,2.754-2.955,4.522-5.649c-0.176-0.013-0.344-0.021-0.498-0.028c-0.154-0.004-0.338-0.008-0.551-0.008
		c-0.703,0-1.227,0.049-1.566,0.146c-0.146,0.037-0.278,0.078-0.401,0.12c-0.125,0.042-0.213,0.063-0.263,0.063
		c-0.045,0-0.067-0.037-0.067-0.11c0-0.403,0.242-1.005,0.731-1.81c0.39-0.683,0.761-1.188,1.109-1.517
		c0.352-0.33,0.779-0.551,1.283-0.667C173.172,9.453,173.885,9.396,174.799,9.396z"/>
</g>
</svg>
