<?xml version="1.0" encoding="utf-8"?>
<!-- Generator: Adobe Illustrator 15.0.0, SVG Export Plug-In . SVG Version: 6.00 Build 0)  -->
<!DOCTYPE svg PUBLIC "-//W3C//DTD SVG 1.1//EN" "http://www.w3.org/Graphics/SVG/1.1/DTD/svg11.dtd">
<svg version="1.1" id="Layer_1" xmlns="http://www.w3.org/2000/svg" xmlns:xlink="http://www.w3.org/1999/xlink" x="0px" y="0px"
	 width="180px" height="34px" viewBox="0 0 180 34" enable-background="new 0 0 180 34" xml:space="preserve">
<g>
	<path fill="#333333" d="M9.262,12.284L8.354,13.38c1.057,0.099,2.001,0.229,2.832,0.394c0.831,0.165,1.601,0.347,2.307,0.548
		c0.706,0.201,1.327,0.411,1.862,0.631c1.876,0.804,2.814,1.926,2.814,3.363c0,0.878-0.392,1.736-1.176,2.578
		c-0.783,0.84-1.802,1.59-3.055,2.248c-1.252,0.655-2.541,1.172-3.865,1.543c-1.325,0.373-2.527,0.557-3.608,0.557
		c-1.805,0-3.212-0.344-4.222-1.03c-1.009-0.69-1.515-1.63-1.515-2.825c0-0.828,0.31-1.804,0.927-2.925
		c0.618-1.12,1.573-2.516,2.868-4.185c-0.975-0.049-1.663-0.198-2.066-0.448c-0.404-0.25-0.606-0.601-0.606-1.051
		c0-0.28,0.077-0.494,0.231-0.64c0.155-0.146,0.363-0.252,0.624-0.321c0.262-0.066,0.763-0.149,1.505-0.246
		c0.743-0.098,1.695-0.219,2.86-0.365c1.294-1.633,2.455-2.861,3.482-3.685c1.026-0.822,2.129-1.294,3.305-1.416
		c0.094-0.012,0.197-0.018,0.311-0.018s0.17,0.03,0.17,0.091c0,0.074-0.133,0.268-0.401,0.584c-0.267,0.317-0.701,0.823-1.3,1.518
		c-0.6,0.694-1.31,1.517-2.129,2.467c2.232-0.304,4.058-0.654,5.478-1.051c1.417-0.396,2.49-0.867,3.214-1.417
		c0.725-0.549,1.087-1.158,1.087-1.828c0-0.815-0.387-1.408-1.158-1.772c-0.771-0.366-1.954-0.549-3.545-0.549
		c-0.878,0-1.885,0.092-3.02,0.274c-1.134,0.183-2.161,0.39-3.081,0.621c-0.92,0.232-1.741,0.479-2.458,0.741
		C6.308,6.03,5.95,6.221,5.95,6.343c0,0.036,0.036,0.073,0.106,0.109c0.582,0.22,0.873,0.402,0.873,0.549
		c0,0.195-0.891,0.569-2.672,1.124c-1.78,0.555-2.98,0.832-3.598,0.832C0.219,8.957,0,8.732,0,8.281
		c0-0.536,0.478-1.501,1.434-2.897C2.39,3.988,3.26,3.096,4.043,2.705c0.272-0.133,0.909-0.347,1.906-0.64
		c0.997-0.292,2.093-0.572,3.286-0.841c1.194-0.267,2.409-0.493,3.643-0.675c1.235-0.184,2.327-0.275,3.278-0.275
		c2.245,0,3.93,0.412,5.059,1.234s1.693,1.856,1.693,3.099c0,0.84-0.259,1.651-0.775,2.43c-0.517,0.78-1.321,1.518-2.414,2.212
		c-1.092,0.695-2.515,1.305-4.266,1.828C13.701,11.602,11.638,12.004,9.262,12.284z M7.374,14.642
		c-0.617,0.755-1.166,1.423-1.647,2.002c-0.481,0.578-0.826,1.047-1.033,1.407c-0.208,0.36-0.312,0.723-0.312,1.088
		c0,0.585,0.293,1.107,0.882,1.562c0.588,0.458,1.434,0.686,2.538,0.686c1.021,0,2.111-0.186,3.269-0.557
		c1.158-0.371,2.132-0.856,2.922-1.452c0.79-0.598,1.185-1.202,1.185-1.811c0-0.524-0.292-0.957-0.874-1.298
		c-0.582-0.341-1.466-0.644-2.654-0.905C10.462,15.103,9.037,14.861,7.374,14.642z"/>
	<path fill="#333333" d="M22.498,19.542v0.456c0,0.72,0.172,1.278,0.517,1.682c0.343,0.401,0.795,0.604,1.354,0.604
		c0.582,0,1.184-0.14,1.808-0.419c0.624-0.281,1.243-0.653,1.861-1.117c0.617-0.463,1.372-1.084,2.262-1.864v1.115
		c-1.341,1.656-2.6,2.928-3.775,3.812c-1.177,0.885-2.37,1.323-3.581,1.323c-1.057,0-1.895-0.419-2.512-1.26
		c-0.617-0.84-0.926-1.992-0.926-3.454c0-1.28,0.292-2.441,0.873-3.482c0.583-1.043,1.533-2.142,2.85-3.3
		c0.902-0.792,1.799-1.388,2.691-1.792c0.89-0.402,1.685-0.603,2.386-0.603c0.558,0,1,0.131,1.328,0.393
		c0.326,0.263,0.49,0.655,0.49,1.18c0,0.768-0.279,1.533-0.837,2.293c-0.559,0.762-1.41,1.517-2.556,2.267
		C25.582,18.125,24.171,18.847,22.498,19.542z M22.676,18.353c1.068-0.426,1.982-0.956,2.743-1.589
		c0.76-0.634,1.321-1.24,1.682-1.82c0.363-0.578,0.544-1.002,0.544-1.269c0-0.281-0.125-0.421-0.374-0.421
		c-0.214,0-0.561,0.141-1.042,0.421c-0.481,0.28-0.968,0.646-1.46,1.096c-0.494,0.451-0.936,0.98-1.327,1.591
		C23.05,16.97,22.794,17.634,22.676,18.353z"/>
	<path fill="#333333" d="M38.44,18.921c-1.044,1.219-1.98,2.254-2.805,3.106c-0.827,0.854-1.496,1.488-2.013,1.91
		c-0.517,0.419-0.869,0.63-1.06,0.63c-0.309,0-0.656-0.254-1.042-0.77c-0.386-0.509-0.715-1.162-0.989-1.952
		c-0.273-0.794-0.409-1.597-0.409-2.414c0-1.184,0.558-2.374,1.674-3.574c1.117-1.2,2.387-2.197,3.813-2.988
		c1.424-0.792,2.493-1.189,3.206-1.189c0.58,0,1.152,0.377,1.71,1.134c0.914-1.964,1.784-3.706,2.608-5.229
		c0.827-1.523,1.519-2.656,2.077-3.401c0.559-0.743,0.956-1.114,1.193-1.114c0.262,0,0.501,0.13,0.722,0.393
		c0.218,0.261,0.329,0.558,0.329,0.887c0,0.634-0.451,1.721-1.354,3.263c-0.903,1.542-1.794,3.043-2.673,4.506
		c-0.878,1.463-1.633,2.903-2.262,4.323c-0.63,1.421-0.944,2.733-0.944,3.94c0,1.098,0.344,1.645,1.034,1.645
		c0.414,0,0.938-0.24,1.566-0.723c0.63-0.481,1.526-1.288,2.691-2.422v1.336c-2.565,3.398-4.543,5.099-5.932,5.099
		c-0.559,0-0.96-0.22-1.203-0.656c-0.243-0.439-0.366-1.092-0.366-1.957C38.012,21.532,38.156,20.271,38.44,18.921z M39.76,14.459
		c-1.058,0.365-2.3,0.954-3.724,1.764c-1.426,0.811-2.287,1.368-2.584,1.672c-0.261,0.244-0.493,0.702-0.694,1.372
		c-0.203,0.67-0.303,1.176-0.303,1.517c0,0.208,0.059,0.377,0.178,0.513c0.119,0.134,0.267,0.199,0.445,0.199
		c0.166,0,0.356-0.073,0.568-0.22c0.214-0.144,0.557-0.432,1.026-0.857c0.468-0.427,0.774-0.7,0.917-0.823
		c0.201-0.182,0.65-0.576,1.344-1.178c0.696-0.604,1.202-1.076,1.523-1.417c0.32-0.341,0.596-0.723,0.82-1.143
		C39.502,15.438,39.663,14.971,39.76,14.459z"/>
	<path fill="#333333" d="M51.729,24.497c-0.843,0-1.656-0.27-2.44-0.808c-0.785-0.536-1.413-1.278-1.888-2.229
		c-0.476-0.95-0.714-2.011-0.714-3.182c0-1.56,0.58-2.979,1.738-4.258c1.159-1.28,2.865-2.541,5.121-3.785
		c-0.119-0.768-0.178-1.309-0.178-1.626c0-1.231,0.253-2.389,0.757-3.474c0.504-1.084,1.16-2.007,1.968-2.769
		c0.807-0.762,1.663-1.348,2.565-1.755C59.561,0.204,60.422,0,61.241,0c0.949,0,1.716,0.235,2.298,0.704
		c0.582,0.469,0.873,1.076,0.873,1.818c0,0.987-0.247,1.872-0.74,2.651c-0.493,0.78-1.122,1.478-1.888,2.093
		c-0.767,0.616-1.707,1.28-2.823,1.993c-1.116,0.712-1.794,1.161-2.03,1.343c0.38,1.536,0.956,3.107,1.727,4.716
		c1.069-0.743,1.907-1.411,2.511-2.001c0.605-0.59,1.118-1.136,1.532-1.636c0.417-0.5,0.695-0.749,0.838-0.749
		c0.107,0,0.195,0.135,0.268,0.402c0.07,0.268,0.106,0.56,0.106,0.877c0,0.742-0.13,1.443-0.392,2.103
		c-0.261,0.657-0.633,1.315-1.113,1.973c-0.482,0.659-1.078,1.36-1.791,2.103l1.176,1.316c0.107-0.098,0.236-0.238,0.392-0.421
		c0.154-0.181,0.272-0.308,0.356-0.375c0.083-0.066,0.173-0.1,0.268-0.1c0.119,0,0.21,0.048,0.275,0.146
		c0.066,0.099,0.099,0.208,0.099,0.329c0,0.499-0.345,1.339-1.034,2.513c-0.688,1.177-1.259,1.766-1.71,1.766
		c-0.237,0-0.469-0.101-0.694-0.304c-0.226-0.2-0.498-0.524-0.819-0.969s-0.583-0.818-0.784-1.123
		c-1.366,1.072-2.581,1.896-3.643,2.467C53.436,24.209,52.513,24.497,51.729,24.497z M54.134,12.632
		c-0.88,0.621-1.661,1.292-2.343,2.01c-0.682,0.719-1.223,1.417-1.621,2.093c-0.397,0.676-0.596,1.24-0.596,1.691
		c0,0.901,0.397,1.352,1.194,1.352c0.581,0,1.371-0.197,2.368-0.593c0.999-0.396,1.996-0.973,2.993-1.728
		C55.606,16.215,54.941,14.605,54.134,12.632z M56.538,7.167v0.749c1.71-0.987,3.037-2.029,3.981-3.126
		c0.945-1.097,1.417-1.967,1.417-2.614c0-0.548-0.268-0.822-0.802-0.822c-0.487,0-1.104,0.295-1.851,0.886
		c-0.749,0.592-1.393,1.334-1.934,2.23C56.809,5.366,56.538,6.265,56.538,7.167z"/>
	<path fill="#333333" d="M73.14,12.284l-0.909,1.097c1.058,0.099,2.001,0.229,2.833,0.394c0.831,0.165,1.599,0.347,2.306,0.548
		c0.707,0.201,1.328,0.411,1.862,0.631c1.877,0.804,2.813,1.926,2.813,3.363c0,0.878-0.39,1.736-1.175,2.578
		c-0.783,0.84-1.802,1.59-3.054,2.248c-1.255,0.655-2.544,1.172-3.867,1.543c-1.324,0.373-2.527,0.557-3.606,0.557
		c-1.806,0-3.213-0.344-4.223-1.03c-1.009-0.69-1.514-1.63-1.514-2.825c0-0.828,0.309-1.804,0.925-2.925
		c0.619-1.12,1.575-2.516,2.869-4.185c-0.974-0.049-1.662-0.198-2.067-0.448c-0.403-0.25-0.605-0.601-0.605-1.051
		c0-0.28,0.078-0.494,0.231-0.64c0.155-0.146,0.364-0.252,0.624-0.321c0.263-0.066,0.764-0.149,1.506-0.246
		c0.743-0.098,1.696-0.219,2.86-0.365c1.295-1.633,2.455-2.861,3.481-3.685c1.027-0.822,2.13-1.294,3.305-1.416
		c0.095-0.012,0.2-0.018,0.312-0.018c0.113,0,0.17,0.03,0.17,0.091c0,0.074-0.134,0.268-0.399,0.584
		c-0.269,0.317-0.702,0.823-1.301,1.518c-0.602,0.694-1.311,1.517-2.128,2.467c2.233-0.304,4.057-0.654,5.477-1.051
		c1.419-0.396,2.49-0.867,3.215-1.417c0.724-0.549,1.087-1.158,1.087-1.828c0-0.815-0.387-1.408-1.159-1.772
		c-0.772-0.366-1.952-0.549-3.543-0.549c-0.879,0-1.886,0.092-3.021,0.274c-1.134,0.183-2.161,0.39-3.082,0.621
		c-0.921,0.232-1.74,0.479-2.458,0.741c-0.719,0.262-1.078,0.454-1.078,0.576c0,0.036,0.037,0.073,0.107,0.109
		c0.581,0.22,0.872,0.402,0.872,0.549c0,0.195-0.89,0.569-2.672,1.124c-1.78,0.555-2.98,0.832-3.597,0.832
		c-0.439,0-0.66-0.225-0.66-0.676c0-0.536,0.479-1.501,1.434-2.897c0.957-1.396,1.827-2.288,2.609-2.679
		c0.274-0.133,0.909-0.347,1.906-0.64c0.999-0.292,2.093-0.572,3.287-0.841c1.194-0.267,2.407-0.493,3.643-0.675
		c1.234-0.184,2.328-0.275,3.277-0.275c2.246,0,3.932,0.412,5.06,1.234c1.13,0.822,1.691,1.856,1.691,3.099
		c0,0.84-0.257,1.651-0.773,2.43c-0.518,0.78-1.322,1.518-2.415,2.212s-2.514,1.305-4.265,1.828
		C77.579,11.602,75.515,12.004,73.14,12.284z M71.251,14.642c-0.617,0.755-1.166,1.423-1.647,2.002
		c-0.481,0.578-0.825,1.047-1.034,1.407c-0.207,0.36-0.311,0.723-0.311,1.088c0,0.585,0.293,1.107,0.881,1.562
		c0.588,0.458,1.434,0.686,2.539,0.686c1.021,0,2.111-0.186,3.269-0.557c1.157-0.371,2.131-0.856,2.92-1.452
		c0.79-0.598,1.186-1.202,1.186-1.811c0-0.524-0.291-0.957-0.873-1.298c-0.583-0.341-1.467-0.644-2.654-0.905
		C74.339,15.103,72.914,14.861,71.251,14.642z"/>
	<path fill="#333333" d="M83.346,20.291v-1.187c0.642-0.781,1.128-1.446,1.462-1.994c-0.381-0.135-0.655-0.3-0.829-0.494
		c-0.173-0.195-0.258-0.488-0.258-0.877c0-0.439,0.178-0.994,0.536-1.664c0.354-0.671,0.793-1.298,1.315-1.883
		c0.524-0.584,0.998-0.963,1.427-1.133c0.166-0.085,0.325-0.127,0.48-0.127c0.237,0,0.355,0.115,0.355,0.346
		c0,0.208-0.184,0.628-0.552,1.263c2.447-0.391,3.992-0.586,4.632-0.586c0.248,0,0.422,0.025,0.514,0.074
		c0.203,0.11,0.371,0.366,0.5,0.768c0.133,0.402,0.197,0.805,0.197,1.207c0,0.256-0.109,0.534-0.328,0.832
		c-0.223,0.298-0.6,0.734-1.133,1.306c-0.629,0.696-1.159,1.452-1.586,2.268c-0.428,0.816-0.641,1.434-0.641,1.847
		c0,0.573,0.343,0.858,1.034,0.858c0.724,0,1.98-0.756,3.777-2.266v1.225c-0.986,1.062-1.801,1.893-2.441,2.504
		c-0.641,0.609-1.236,1.094-1.782,1.454c-0.548,0.359-1.033,0.538-1.462,0.538c-0.497,0-0.913-0.234-1.245-0.702
		c-0.333-0.469-0.499-1.149-0.499-2.039c0-0.523,0.131-1.12,0.393-1.791c0.26-0.671,0.644-1.399,1.146-2.184
		c0.507-0.788,1.074-1.57,1.702-2.349c-0.331,0.073-0.706,0.148-1.121,0.228c-0.416,0.079-0.855,0.161-1.319,0.247
		c-0.463,0.086-0.818,0.152-1.069,0.201C85.818,17.689,84.749,19.06,83.346,20.291z"/>
	<path fill="#333333" d="M97.029,19.542v0.456c0,0.72,0.172,1.278,0.516,1.682c0.344,0.401,0.793,0.604,1.354,0.604
		c0.582,0,1.184-0.14,1.807-0.419c0.625-0.281,1.244-0.653,1.863-1.117c0.617-0.463,1.369-1.084,2.262-1.864v1.115
		c-1.342,1.656-2.604,2.928-3.775,3.812c-1.178,0.885-2.371,1.323-3.58,1.323c-1.059,0-1.896-0.419-2.514-1.26
		c-0.617-0.84-0.926-1.992-0.926-3.454c0-1.28,0.291-2.441,0.873-3.482c0.58-1.043,1.531-2.142,2.852-3.3
		c0.9-0.792,1.797-1.388,2.688-1.792c0.893-0.402,1.688-0.603,2.387-0.603c0.559,0,1.002,0.131,1.328,0.393
		c0.326,0.263,0.49,0.655,0.49,1.18c0,0.768-0.281,1.533-0.84,2.293c-0.559,0.762-1.408,1.517-2.555,2.267
		C100.113,18.125,98.701,18.847,97.029,19.542z M97.205,18.353c1.07-0.426,1.984-0.956,2.744-1.589
		c0.758-0.634,1.32-1.24,1.684-1.82c0.361-0.578,0.543-1.002,0.543-1.269c0-0.281-0.125-0.421-0.375-0.421
		c-0.213,0-0.561,0.141-1.041,0.421c-0.482,0.28-0.969,0.646-1.459,1.096c-0.494,0.451-0.938,0.98-1.328,1.591
		C97.58,16.97,97.324,17.634,97.205,18.353z"/>
	<path fill="#333333" d="M106.912,15.61c1.807-1.681,3.559-2.931,5.254-3.747c1.699-0.816,3.01-1.226,3.939-1.226
		c0.25,0,0.48,0.106,0.693,0.321c0.215,0.213,0.383,0.459,0.508,0.74c0.127,0.281,0.186,0.487,0.186,0.622
		c0,0.22-0.082,0.38-0.248,0.484c-0.164,0.104-0.459,0.229-0.871,0.374c0.08,0.196,0.189,0.445,0.32,0.75s0.23,0.551,0.301,0.74
		c0.072,0.188,0.107,0.357,0.107,0.503c0,0.293-0.289,0.837-0.865,1.636c-0.574,0.798-0.979,1.386-1.211,1.765
		c-0.229,0.378-0.348,0.841-0.348,1.389c0,0.902,0.406,1.353,1.213,1.353c0.83,0,2.129-0.799,3.902-2.394v1.114
		c-3.008,3.426-5.154,5.136-6.449,5.136c-0.463,0-0.791-0.156-0.99-0.467c-0.195-0.309-0.295-0.769-0.295-1.379
		c0-0.962,0.34-2.357,1.018-4.187c-1.734,1.974-3.021,3.38-3.865,4.214c-0.844,0.835-1.539,1.251-2.084,1.251
		c-0.262,0-0.588-0.231-0.98-0.694c-0.391-0.462-0.738-1.062-1.041-1.801c-0.305-0.735-0.453-1.5-0.453-2.293
		c0-0.573,0.051-1.051,0.158-1.434c0.107-0.386,0.314-0.778,0.625-1.18C105.744,16.799,106.236,16.27,106.912,15.61z
		 M115.445,13.601c-3.088,1.45-5.287,2.681-6.6,3.692c-1.312,1.012-1.969,2.054-1.969,3.126c0,0.39,0.064,0.708,0.195,0.96
		c0.129,0.25,0.311,0.373,0.535,0.373c0.131,0,0.363-0.085,0.695-0.256c1.246-0.755,2.387-1.738,3.42-2.952
		C112.756,17.332,113.996,15.685,115.445,13.601z"/>
	<path fill="#333333" d="M133.062,18.883v1.226c-1.33,1.594-2.445,2.807-3.348,3.628c-0.902,0.823-1.658,1.235-2.262,1.235
		c-0.582,0-1.109-0.177-1.578-0.53c-0.469-0.355-0.889-0.843-1.266-1.464c-0.373-0.622-0.814-1.488-1.326-2.595
		c-0.605,0.768-1.152,1.483-1.641,2.148c-0.484,0.662-0.822,1.104-1.014,1.324c-0.189,0.218-0.361,0.328-0.518,0.328
		c-0.318,0-0.551-0.208-0.693-0.631c-0.143-0.419-0.213-1.033-0.213-1.837c0-1.096,0.127-2.152,0.381-3.172
		c0.256-1.017,0.623-2.007,1.105-2.968c0.482-0.964,1.098-2.003,1.854-3.118c0.752-1.115,1.6-2.282,2.537-3.5
		c1.295-1.682,2.412-3.055,3.35-4.121c0.939-1.067,1.754-1.871,2.449-2.414c0.693-0.542,1.273-0.814,1.736-0.814
		c0.572,0,0.855,0.263,0.855,0.786c0,0.451-1.051,2.075-3.152,4.872c-2.104,2.797-5.166,6.615-9.193,11.452v1.573
		c2.695-2.961,4.867-5.162,6.512-6.599c1.645-1.438,2.92-2.158,3.82-2.158c0.367,0,0.654,0.222,0.855,0.667
		c0.203,0.445,0.303,0.959,0.303,1.545c0,1.194-0.498,2.3-1.496,3.317c-0.996,1.019-2.529,2.185-4.596,3.501
		c0.355,0.547,0.672,0.948,0.945,1.197c0.271,0.249,0.617,0.376,1.033,0.376c0.367,0,0.764-0.13,1.191-0.387
		c0.43-0.256,0.865-0.577,1.309-0.968C131.451,20.395,132.137,19.761,133.062,18.883z M126.027,19.815
		c0.451-0.305,1.014-0.777,1.684-1.417c0.67-0.639,1.242-1.304,1.717-1.992c0.477-0.688,0.713-1.264,0.713-1.728
		c0-0.195-0.082-0.292-0.248-0.292c-0.451,0-1.227,0.444-2.324,1.334c-1.1,0.89-2.17,2.029-3.215,3.418
		C124.803,19.139,125.361,19.364,126.027,19.815z"/>
	<path fill="#333333" d="M142.875,18.883v1.262c-0.709,0.73-1.25,1.261-1.619,1.59s-0.873,0.666-1.514,1.005
		c0,1.109-0.053,2.056-0.158,2.834c-0.107,0.781-0.346,1.601-0.715,2.458c-0.367,0.86-0.936,1.801-1.707,2.826
		c-0.762,1.009-1.512,1.789-2.246,2.33C134.18,33.729,133.602,34,133.189,34c-0.465,0-0.895-0.391-1.285-1.171
		c-0.391-0.779-0.586-1.747-0.586-2.904c0-1.109,0.184-2.278,0.551-3.509c0.369-1.232,0.938-2.823,1.709-4.771
		c-0.58-0.78-0.869-1.555-0.869-2.323c0-0.621,0.152-1.096,0.459-1.426c0.312-0.328,0.748-0.626,1.322-0.895
		c0.412-0.67,0.809-1.241,1.182-1.709c0.373-0.469,0.881-1.093,1.521-1.874c1.236-3.12,2.688-6.167,4.35-9.139
		c0.461-0.829,0.797-1.387,0.996-1.674c0.203-0.286,0.416-0.429,0.641-0.429c0.203,0,0.383,0.152,0.533,0.457
		c0.158,0.305,0.234,0.7,0.234,1.188c0,0.597-0.062,1.146-0.188,1.646c-0.125,0.499-0.303,1.002-0.533,1.508
		c-0.232,0.505-0.553,1.112-0.961,1.819c-0.414,0.707-0.664,1.145-0.758,1.316c-0.596,1.072-1.266,2.26-2.014,3.564
		s-1.34,2.333-1.773,3.089c-0.436,0.756-0.746,1.322-0.934,1.699c0.639,0.574,1.148,1.067,1.521,1.48
		c0.373,0.414,0.697,0.909,0.973,1.48c0.404-0.155,0.771-0.346,1.102-0.565c0.334-0.219,0.725-0.521,1.178-0.903
		C142.012,19.57,142.449,19.212,142.875,18.883z M137.553,23.781l-0.037-0.383c-0.332,0.036-0.6,0.047-0.801,0.029
		c-0.201-0.021-0.436-0.072-0.703-0.159c-0.268-0.084-0.477-0.162-0.625-0.235c-0.146-0.073-0.312-0.146-0.488-0.219
		c-0.902,2.267-1.355,4.148-1.355,5.648c0,0.744,0.111,1.377,0.33,1.899c0.219,0.526,0.477,0.786,0.773,0.786
		c0.312,0,0.701-0.28,1.168-0.84c0.469-0.561,0.877-1.39,1.221-2.486C137.381,26.726,137.553,25.379,137.553,23.781z"/>
	<path fill="#333333" d="M144.443,15.61c1.807-1.681,3.561-2.931,5.256-3.747c1.699-0.816,3.008-1.226,3.936-1.226
		c0.252,0,0.482,0.106,0.697,0.321c0.213,0.213,0.383,0.459,0.504,0.74c0.129,0.281,0.188,0.487,0.188,0.622
		c0,0.22-0.082,0.38-0.246,0.484c-0.166,0.104-0.459,0.229-0.871,0.374c0.08,0.196,0.188,0.445,0.32,0.75
		c0.129,0.305,0.229,0.551,0.301,0.74c0.07,0.188,0.107,0.357,0.107,0.503c0,0.293-0.289,0.837-0.865,1.636
		c-0.574,0.798-0.98,1.386-1.211,1.765c-0.23,0.378-0.348,0.841-0.348,1.389c0,0.902,0.402,1.353,1.211,1.353
		c0.832,0,2.131-0.799,3.902-2.394v1.114c-3.006,3.426-5.152,5.136-6.449,5.136c-0.465,0-0.791-0.156-0.988-0.467
		c-0.195-0.309-0.295-0.769-0.295-1.379c0-0.962,0.338-2.357,1.018-4.187c-1.734,1.974-3.023,3.38-3.865,4.214
		c-0.844,0.835-1.541,1.251-2.086,1.251c-0.262,0-0.59-0.231-0.979-0.694c-0.393-0.462-0.738-1.062-1.043-1.801
		c-0.303-0.735-0.453-1.5-0.453-2.293c0-0.573,0.053-1.051,0.158-1.434c0.107-0.386,0.314-0.778,0.625-1.18
		C143.277,16.799,143.77,16.27,144.443,15.61z M152.979,13.601c-3.09,1.45-5.289,2.681-6.6,3.692
		c-1.314,1.012-1.969,2.054-1.969,3.126c0,0.39,0.064,0.708,0.193,0.96c0.131,0.25,0.309,0.373,0.535,0.373
		c0.131,0,0.363-0.085,0.695-0.256c1.248-0.755,2.387-1.738,3.422-2.952C150.289,17.332,151.527,15.685,152.979,13.601z"/>
	<path fill="#333333" d="M157.094,19.394v-0.438c3.062-3.314,5.172-5.635,6.322-6.964c0.262-1.499,0.891-2.248,1.889-2.248
		c0.248,0,0.518,0.072,0.801,0.219l0.107,0.348c-0.049,0.146-0.068,0.353-0.068,0.622c0,0.231,0.082,0.66,0.256,1.289
		c0.172,0.627,0.305,1.154,0.4,1.581s0.143,0.908,0.143,1.443c0,0.804-0.18,1.577-0.535,2.313c-0.355,0.737-0.871,1.445-1.547,2.121
		c-0.68,0.676-1.555,1.367-2.619,2.073c0.426,0.074,0.766,0.112,1.016,0.112c0.486,0,1.012-0.126,1.574-0.377
		c0.564-0.249,1.141-0.583,1.729-1.005c0.588-0.421,1.275-0.966,2.057-1.636v1.225c-1.52,1.524-2.881,2.678-4.078,3.464
		c-1.201,0.786-2.234,1.179-3.1,1.179c-1.115,0-2.148-0.486-3.102-1.463c-0.557-0.582-0.904-1.146-1.039-1.681
		C157.16,21.034,157.094,20.309,157.094,19.394z M163.736,16.598l-0.32-2.669c-0.738,0.854-2.311,2.492-4.721,4.917
		c0.711,0.158,1.201,0.372,1.461,0.641c0.262,0.268,0.629,0.784,1.104,1.553c0.809-0.342,1.43-0.807,1.861-1.397
		c0.436-0.592,0.652-1.399,0.652-2.423c0-0.123-0.004-0.232-0.012-0.329C163.758,16.794,163.748,16.696,163.736,16.598z"/>
	<path fill="#333333" d="M174.799,9.396h0.766c0.631-1.157,1.199-1.978,1.711-2.459c0.51-0.481,1.092-0.722,1.746-0.722
		c0.652,0,0.979,0.153,0.979,0.458c0,0.146-0.254,0.542-0.764,1.188c-0.512,0.646-0.898,1.188-1.16,1.627
		c0.404,0.048,0.764,0.091,1.08,0.129c0.312,0.035,0.559,0.066,0.738,0.091c-0.676,1.291-1.527,2.614-2.549,3.967
		c-0.332-0.024-0.611-0.046-0.838-0.064c-0.225-0.018-0.453-0.037-0.684-0.055c-0.23-0.019-0.516-0.041-0.846-0.065
		c-0.641,1.061-1.18,2.009-1.611,2.843c-0.436,0.836-0.768,1.601-1,2.295c-0.23,0.693-0.348,1.352-0.348,1.974
		c0,0.84,0.328,1.263,0.98,1.263c0.451,0,1.043-0.248,1.773-0.742c0.729-0.493,1.705-1.252,2.93-2.275v1.225
		c-3.207,3.57-5.578,5.355-7.105,5.355c-0.535,0-0.969-0.215-1.291-0.639c-0.328-0.427-0.492-0.976-0.492-1.646
		c0-0.45,0.092-0.988,0.277-1.61c0.182-0.619,0.51-1.559,0.986-2.814c-0.168,0.146-0.322,0.291-0.473,0.431
		c-0.148,0.14-0.283,0.268-0.406,0.384c-0.129,0.115-0.26,0.238-0.402,0.365c-0.145,0.129-0.287,0.259-0.428,0.394V19.03
		c1.244-1.072,2.754-2.956,4.523-5.65c-0.176-0.012-0.344-0.021-0.498-0.028c-0.154-0.004-0.338-0.008-0.551-0.008
		c-0.703,0-1.227,0.049-1.566,0.146c-0.146,0.037-0.279,0.078-0.402,0.12c-0.125,0.042-0.213,0.064-0.262,0.064
		c-0.045,0-0.068-0.037-0.068-0.11c0-0.403,0.242-1.005,0.732-1.81c0.389-0.682,0.76-1.188,1.109-1.517
		c0.352-0.33,0.779-0.551,1.283-0.667S173.885,9.396,174.799,9.396z"/>
</g>
</svg>
