<?xml version="1.0" encoding="utf-8"?>
<!-- Generator: Adobe Illustrator 26.3.1, SVG Export Plug-In . SVG Version: 6.00 Build 0)  -->
<svg version="1.1" id="Layer_1" xmlns="http://www.w3.org/2000/svg" xmlns:xlink="http://www.w3.org/1999/xlink" x="0px" y="0px"
	 viewBox="0 0 189 40" style="enable-background:new 0 0 189 40;" xml:space="preserve">
<style type="text/css">
	.st0{fill:#EFEFEF;}
</style>
<rect class="st0" width="189" height="40"/>
<g>
	<path d="M40.6,15.8v8.1h-1.1v-8.1H40.6z"/>
	<path d="M49.2,20.3c-0.1-1.1-0.1-2.5-0.1-3.5h0c-0.3,0.9-0.6,2-1,3.1l-1.4,3.9h-0.8L44.5,20c-0.4-1.1-0.7-2.2-0.9-3.1h0
		c0,1-0.1,2.4-0.2,3.6l-0.2,3.5h-1l0.6-8.1h1.3l1.4,3.9c0.3,1,0.6,1.9,0.8,2.7h0c0.2-0.8,0.5-1.7,0.9-2.7l1.4-3.9h1.3l0.5,8.1h-1
		L49.2,20.3z"/>
	<path d="M53.3,21.3l-0.8,2.5h-1.1l2.7-8.1h1.3l2.8,8.1H57l-0.9-2.5H53.3z M55.9,20.5l-0.8-2.3c-0.2-0.5-0.3-1-0.4-1.5h0
		c-0.1,0.5-0.2,1-0.4,1.5l-0.8,2.3H55.9z"/>
	<path d="M65.3,23.5c-0.5,0.2-1.4,0.4-2.5,0.4c-1.2,0-2.2-0.3-3-1.1c-0.7-0.7-1.1-1.8-1.1-3c0-2.4,1.7-4.2,4.4-4.2
		c0.9,0,1.7,0.2,2,0.4l-0.3,0.9c-0.4-0.2-1-0.3-1.8-0.3c-2,0-3.2,1.2-3.2,3.2c0,2.1,1.2,3.3,3.1,3.3c0.7,0,1.2-0.1,1.4-0.2v-2.4
		h-1.6v-0.8h2.7V23.5z"/>
	<path d="M71,20.1h-3.1V23h3.5v0.9h-4.6v-8.1h4.4v0.9h-3.3v2.6H71V20.1z"/>
	<path d="M75.3,15.9c0.5-0.1,1.2-0.2,2-0.2c1,0,1.8,0.2,2.3,0.7c0.4,0.4,0.7,1,0.7,1.7c0,0.7-0.2,1.3-0.6,1.7
		c-0.6,0.6-1.5,0.9-2.5,0.9c-0.3,0-0.6,0-0.8-0.1v3.3h-1V15.9z M76.4,19.8c0.2,0.1,0.5,0.1,0.9,0.1c1.3,0,2-0.6,2-1.7
		c0-1.1-0.8-1.6-1.9-1.6c-0.5,0-0.8,0-1,0.1V19.8z"/>
	<path d="M81.7,15.8h1.1V23h3.5v0.9h-4.5V15.8z"/>
	<path d="M88.7,21.3l-0.8,2.5h-1.1l2.7-8.1h1.3l2.8,8.1h-1.1l-0.9-2.5H88.7z M91.3,20.5l-0.8-2.3c-0.2-0.5-0.3-1-0.4-1.5h0
		c-0.1,0.5-0.2,1-0.4,1.5l-0.8,2.3H91.3z"/>
	<path d="M100.2,23.6C99.8,23.8,99,24,98,24c-2.3,0-4-1.4-4-4.1c0-2.5,1.7-4.2,4.2-4.2c1,0,1.6,0.2,1.9,0.3l-0.3,0.9
		c-0.4-0.2-0.9-0.3-1.6-0.3c-1.9,0-3.2,1.2-3.2,3.3c0,2,1.1,3.2,3.1,3.2c0.6,0,1.3-0.1,1.7-0.3L100.2,23.6z"/>
	<path d="M105.7,20.1h-3.1V23h3.5v0.9h-4.6v-8.1h4.4v0.9h-3.3v2.6h3.1V20.1z"/>
	<path d="M108.4,15.8v3.4h3.9v-3.4h1.1v8.1h-1.1v-3.8h-3.9v3.8h-1.1v-8.1H108.4z"/>
	<path d="M118.4,24c-2.1,0-3.6-1.7-3.6-4.1c0-2.6,1.6-4.2,3.7-4.2c2.2,0,3.6,1.7,3.6,4.1C122.1,22.5,120.4,24,118.4,24L118.4,24z
		 M118.4,23.2c1.7,0,2.6-1.5,2.6-3.4c0-1.6-0.8-3.3-2.6-3.3s-2.6,1.6-2.6,3.4C115.8,21.6,116.8,23.2,118.4,23.2L118.4,23.2z"/>
	<path d="M123.5,15.8h1.1V23h3.5v0.9h-4.5V15.8z"/>
	<path d="M129.1,15.9c0.6-0.1,1.4-0.2,2.2-0.2c1.5,0,2.6,0.3,3.3,1c0.7,0.7,1.2,1.6,1.2,2.9c0,1.3-0.4,2.4-1.2,3.1
		c-0.8,0.8-2,1.2-3.6,1.2c-0.8,0-1.4,0-1.9-0.1V15.9z M130.2,23.1c0.3,0,0.6,0,1.1,0c2.2,0,3.4-1.2,3.4-3.4c0-1.9-1.1-3.1-3.3-3.1
		c-0.5,0-0.9,0-1.2,0.1V23.1z"/>
	<path d="M141.3,20.1h-3.1V23h3.5v0.9h-4.6v-8.1h4.4v0.9h-3.3v2.6h3.1V20.1z"/>
	<path d="M143,15.9c0.5-0.1,1.3-0.2,2-0.2c1.1,0,1.8,0.2,2.4,0.7c0.4,0.3,0.6,0.9,0.6,1.5c0,1.1-0.7,1.8-1.5,2.1v0
		c0.6,0.2,1,0.8,1.2,1.6c0.3,1.1,0.5,1.9,0.6,2.2h-1.1c-0.1-0.2-0.3-0.9-0.5-1.9c-0.2-1.1-0.7-1.5-1.6-1.6h-1v3.5h-1V15.9z
		 M144.1,19.6h1.1c1.1,0,1.8-0.6,1.8-1.5c0-1-0.8-1.5-1.9-1.5c-0.5,0-0.9,0-1,0.1V19.6z"/>
</g>
</svg>
